<svg width="20" height="17" viewBox="0 0 20 17" fill="none" xmlns="http://www.w3.org/2000/svg">
<path d="M10.0002 3.83333C12.3002 3.83333 14.1668 5.7 14.1668 8C14.1668 8.5375 14.0585 9.05 13.871 9.52083L16.3085 11.9583C17.5668 10.9083 18.5585 9.55 19.171 8C17.7252 4.34167 14.171 1.75 10.0002 1.75C8.8335 1.75 7.71683 1.95833 6.67933 2.33333L8.47933 4.12917C8.95016 3.94583 9.46266 3.83333 10.0002 3.83333ZM1.66683 1.5625L3.56683 3.4625L3.946 3.84167C2.571 4.91667 1.4835 6.34583 0.833496 8C2.27516 11.6583 5.8335 14.25 10.0002 14.25C11.2918 14.25 12.5252 14 13.6543 13.5458L14.0085 13.9L16.4377 16.3333L17.5002 15.275L2.72933 0.5L1.66683 1.5625ZM6.27516 6.16667L7.56266 7.45417C7.52516 7.63333 7.50016 7.8125 7.50016 8C7.50016 9.37917 8.621 10.5 10.0002 10.5C10.1877 10.5 10.3668 10.475 10.5418 10.4375L11.8293 11.725C11.2752 12 10.6585 12.1667 10.0002 12.1667C7.70016 12.1667 5.8335 10.3 5.8335 8C5.8335 7.34167 6.00016 6.725 6.27516 6.16667ZM9.86266 5.5125L12.4877 8.1375L12.5002 8C12.5002 6.62083 11.3793 5.5 10.0002 5.5L9.86266 5.5125Z" fill="#666666"/>
</svg>
