<svg width="16" height="16" viewBox="0 0 16 16" fill="none" xmlns="http://www.w3.org/2000/svg">
<path d="M10.9167 9.66667H10.2542L10.025 9.4375C10.8417 8.49167 11.3333 7.2625 11.3333 5.91667C11.3333 2.925 8.90833 0.5 5.91667 0.5C2.925 0.5 0.5 2.925 0.5 5.91667C0.5 8.90833 2.925 11.3333 5.91667 11.3333C7.2625 11.3333 8.49167 10.8417 9.4375 10.0292L9.66667 10.2583V10.9167L13.8333 15.075L15.075 13.8333L10.9167 9.66667ZM5.91667 9.66667C3.84583 9.66667 2.16667 7.9875 2.16667 5.91667C2.16667 3.84583 3.84583 2.16667 5.91667 2.16667C7.9875 2.16667 9.66667 3.84583 9.66667 5.91667C9.66667 7.9875 7.9875 9.66667 5.91667 9.66667Z" fill="#A8A8A8"/>
</svg>
