<svg width="20" height="14" viewBox="0 0 20 14" fill="currentColor" xmlns="http://www.w3.org/2000/svg">
<path d="M9.99967 0.75C5.83301 0.75 2.27467 3.34167 0.833008 7C2.27467 10.6583 5.83301 13.25 9.99967 13.25C14.1705 13.25 17.7247 10.6583 19.1663 7C17.7247 3.34167 14.1705 0.75 9.99967 0.75ZM9.99967 11.1667C7.69967 11.1667 5.83301 9.3 5.83301 7C5.83301 4.7 7.69967 2.83333 9.99967 2.83333C12.2997 2.83333 14.1663 4.7 14.1663 7C14.1663 9.3 12.2997 11.1667 9.99967 11.1667ZM9.99967 4.5C8.62051 4.5 7.49967 5.62083 7.49967 7C7.49967 8.37917 8.62051 9.5 9.99967 9.5C11.3788 9.5 12.4997 8.37917 12.4997 7C12.4997 5.62083 11.3788 4.5 9.99967 4.5Z" fill="#666666"/>
</svg>
